# xmcd CD database file
#
# Track frame offsets:
#	150
#	35432
#	78002
#	120214
#	169531
#	219289
#	250972
#	286014
#	320061
#
# Disc length: 4502 seconds
#
# Revision: 0
# Processed by: cddbd v1.5.2PL0 Copyright (c) Steve Scherf et al.
# Submitted via: CDex 1.70beta2
#
DISCID=69119409
DTITLE=TL Carrington,P Dwyer,R Botos,M.Rogers - One Take Volume 2
DYEAR=2005
DGENRE=Jazz
TTITLE0=It's You Or No One
TTITLE1=Freedom Jazz Dance
TTITLE2=Nothing Personal
TTITLE3=Bemsha Swing
TTITLE4=Alone Togeather
TTITLE5=Listen Here
TTITLE6=I Hear a Rhapsody
TTITLE7=Surrey With The Fringe On Top
TTITLE8=Data
EXTD=YEAR: 2005
EXTT0=
EXTT1=
EXTT2=
EXTT3=
EXTT4=
EXTT5=
EXTT6=
EXTT7=
EXTT8=
PLAYORDER=
